<svg width="93" height="24" viewBox="0 0 93 24" fill="none" xmlns="http://www.w3.org/2000/svg">
<g clip-path="url(#clip0_84_408)">
<path d="M58.8635 7.8086C56.6642 7.8086 55.3854 8.85414 54.6599 10.9828C54.6205 11.0923 54.5706 11.1397 54.4334 11.1169C54.3128 11.0972 54.2789 11.0394 54.2789 10.9335V8.65045C54.2789 8.36121 54.0445 8.12675 53.7552 8.12675H53.1792C53.1792 8.12675 53.1737 8.12675 53.1706 8.12675C53.1676 8.12675 53.1651 8.12675 53.162 8.12675H52.5632C52.274 8.12675 52.0396 8.36121 52.0396 8.65045V19.48C52.0396 19.7692 52.274 20.0037 52.5632 20.0037H53.842C54.1312 20.0037 54.3657 19.7692 54.3657 19.48V15.9089C54.3657 12.7754 56.1005 10.0541 58.5497 10.0541C60.3731 10.0541 60.8568 11.6591 60.8568 13.7668V19.1268C60.8568 19.1268 60.8568 19.1298 60.8568 19.1317V19.4794C60.8568 19.7686 61.0912 20.0031 61.3805 20.0031H62.6592C62.9485 20.0031 63.1829 19.7686 63.1829 19.4794V13.5618C63.1829 12.4683 63.0531 11.5298 62.786 10.6923C62.2266 8.94029 60.6131 7.80798 58.8617 7.80798L58.8635 7.8086Z" fill="#000615"/>
<path d="M48.9153 6.78403C49.6851 6.78403 50.3092 6.15998 50.3092 5.39018C50.3092 4.62038 49.6851 3.99634 48.9153 3.99634C48.1455 3.99634 47.5215 4.62038 47.5215 5.39018C47.5215 6.15998 48.1455 6.78403 48.9153 6.78403Z" fill="#000615"/>
<path d="M78.3621 6.78403C79.1319 6.78403 79.756 6.15998 79.756 5.39018C79.756 4.62038 79.1319 3.99634 78.3621 3.99634C77.5923 3.99634 76.9683 4.62038 76.9683 5.39018C76.9683 6.15998 77.5923 6.78403 78.3621 6.78403Z" fill="#000615"/>
<path d="M71.4143 13.0726C70.3171 12.8326 69.4691 12.6449 68.6082 12.4461C67.5423 12.2006 67.1977 11.8326 67.1793 11.296C67.1509 10.4597 68.0648 9.87567 69.8205 9.87567C71.1811 9.87567 72.5946 10.3852 73.8457 11.2191C74.0389 11.3483 74.2968 11.3169 74.4346 11.1298L75.1152 10.1231C75.2531 9.93597 75.2451 9.70951 75.026 9.53413C73.7577 8.51997 71.93 7.83136 69.9054 7.83136C66.9983 7.83136 64.8672 9.13474 64.8672 11.2627C64.8672 13.2307 66.258 14.2492 68.0845 14.656C69.114 14.8855 70.9257 15.2849 71.4408 15.3975C72.5534 15.6406 73.338 15.9809 73.338 16.7821C73.338 17.6855 72.2549 18.1391 70.7386 18.1391C69.2223 18.1391 67.5405 17.5569 66.298 16.6492C66.0648 16.4787 65.7374 16.5274 65.5657 16.76L64.8069 17.7895C64.6352 18.0221 64.6845 18.3187 64.9177 18.5218C65.778 19.2707 68.0648 20.4381 70.7196 20.4381C73.8771 20.4381 75.6771 18.7631 75.6771 16.8763C75.6771 14.7864 74.154 13.6707 71.4131 13.0714L71.4143 13.0726Z" fill="#000615"/>
<path d="M36.5227 8.12803L31.9983 8.12679C31.855 8.12679 31.7928 8.05356 31.7928 7.90218C31.7928 7.7188 31.8777 7.67756 31.9983 7.67756C32.6919 7.67756 33.1663 7.35572 33.5023 6.87387C33.9251 6.2671 33.9134 5.32987 33.9134 4.52064C33.9134 4.22095 33.679 3.99695 33.3897 3.99695H32.111C31.8217 3.99695 31.5873 4.20187 31.5873 4.52064V5.62033C31.5873 7.12372 30.6796 8.12864 29.3602 8.12864H29.0525C28.7633 8.12864 28.5288 8.3631 28.5288 8.65233V9.76803C28.5288 10.0573 28.7633 10.2917 29.0525 10.2917H31.5873V16.6696C31.5873 18.5083 33.0833 20.0043 34.922 20.0043H36.5227C36.8119 20.0043 37.0463 19.7699 37.0463 19.4806V18.2013C37.0463 17.912 36.8119 17.6776 36.5227 17.6776H34.922C34.3663 17.6776 33.914 17.2253 33.914 16.6696V10.2917H36.5227C36.8119 10.2917 37.0463 10.0573 37.0463 9.76803V8.65233C37.0463 8.3631 36.8119 8.12864 36.5227 8.12864V8.12803Z" fill="#000615"/>
<path d="M45.8775 8.12677H45.507V8.128C45.4873 8.12739 45.467 8.12677 45.4461 8.12677H41.7322C39.8935 8.12677 38.3975 9.62277 38.3975 11.4615V19.48C38.3975 19.7692 38.6319 20.0037 38.9212 20.0037H40.2005C40.4898 20.0037 40.7242 19.7692 40.7242 19.48V11.2991C40.7242 10.7434 41.1765 10.2911 41.7328 10.2911H45.4467C45.4676 10.2911 45.4879 10.2911 45.5076 10.2898V10.2911H45.8781C46.1673 10.2911 46.4018 10.0566 46.4018 9.76739V8.65108C46.4018 8.36185 46.1673 8.12739 45.8781 8.12739L45.8775 8.12677Z" fill="#000615"/>
<path d="M49.5545 8.12677H48.2752C47.9859 8.12677 47.7515 8.36124 47.7515 8.65046V19.48C47.7515 19.7692 47.9859 20.0037 48.2752 20.0037H49.5545C49.8438 20.0037 50.0782 19.7692 50.0782 19.48V8.65046C50.0782 8.36124 49.8438 8.12677 49.5545 8.12677Z" fill="#000615"/>
<path d="M79.0017 8.12677H77.7229C77.4337 8.12677 77.1992 8.36124 77.1992 8.65046V19.48C77.1992 19.7692 77.4337 20.0037 77.7229 20.0037H79.0017C79.2909 20.0037 79.5254 19.7692 79.5254 19.48V8.65046C79.5254 8.36124 79.2909 8.12677 79.0017 8.12677Z" fill="#000615"/>
<path d="M92.3487 17.1735L91.393 16.4055C91.1677 16.2246 90.8945 16.2006 90.657 16.4855C89.7579 17.5631 88.7844 18.1717 87.3948 18.1717C85.6859 18.1717 83.353 16.8431 83.353 14.136C83.353 11.4289 85.4084 10.0412 87.3961 10.0412C88.8293 10.0412 89.8939 10.6886 90.7277 11.7046C90.9111 11.928 91.2404 11.9625 91.4644 11.7803L92.3493 11.0701C92.5733 10.8874 92.6478 10.6301 92.425 10.3335C91.4767 9.07322 89.7314 7.82953 87.4065 7.82953C84.601 7.82953 81.0459 10.0258 81.0459 14.136C81.0459 18.2461 84.7161 20.4425 87.321 20.4425C89.9259 20.4425 91.5253 19.1151 92.4287 17.9095C92.6502 17.6141 92.5739 17.3545 92.3487 17.1735Z" fill="#000615"/>
<path d="M22.4821 14.7735C21.5006 13.0732 19.3264 12.4904 17.6261 13.4726L16.239 14.2732C15.4876 14.7071 14.527 14.4498 14.0932 13.6984L13.9775 13.4978C13.5436 12.7464 13.8009 11.7858 14.5523 11.352L22.7221 6.63505C24.4224 5.65352 25.0052 3.47936 24.023 1.77905C23.0415 0.0787463 20.8673 -0.504023 19.167 0.477515L2.2778 10.2277C0.577494 11.2092 -0.0046603 13.3834 0.976878 15.0837C1.95842 16.784 4.13257 17.3667 5.83288 16.3852L6.75596 15.8523C7.80334 15.2474 9.11226 16.0037 9.11226 17.2129V20.44C9.11226 23.1766 12.0747 24.8867 14.4446 23.5187L21.1806 19.6295C22.8809 18.648 23.4636 16.4738 22.4815 14.7735H22.4821Z" fill="#01B6AA"/>
</g>
<defs>
<clipPath id="clip0_84_408">
<rect width="92.0615" height="24" fill="white" transform="translate(0.5)"/>
</clipPath>
</defs>
</svg>
